<?xml version="1.0" encoding="UTF-8" standalone="no"?>
<!-- Created with Inkscape (http://www.inkscape.org/) -->
<svg
   xmlns:dc="http://purl.org/dc/elements/1.1/"
   xmlns:cc="http://web.resource.org/cc/"
   xmlns:rdf="http://www.w3.org/1999/02/22-rdf-syntax-ns#"
   xmlns:svg="http://www.w3.org/2000/svg"
   xmlns="http://www.w3.org/2000/svg"
   xmlns:sodipodi="http://sodipodi.sourceforge.net/DTD/sodipodi-0.dtd"
   xmlns:inkscape="http://www.inkscape.org/namespaces/inkscape"
   id="svg1923"
   sodipodi:version="0.32"
   inkscape:version="0.44"
   width="177"
   height="186"
   version="1.0"
   sodipodi:docbase="C:\Documents and Settings\hcheng\My Documents\My Pictures\wikipedia"
   sodipodi:docname="Schwa_IPA_symbol.svg">
  <metadata
     id="metadata1928">
    <rdf:RDF>
      <cc:Work
         rdf:about="">
        <dc:format>image/svg+xml</dc:format>
        <dc:type
           rdf:resource="http://purl.org/dc/dcmitype/StillImage" />
      </cc:Work>
    </rdf:RDF>
  </metadata>
  <defs
     id="defs1926" />
  <sodipodi:namedview
     inkscape:window-height="573"
     inkscape:window-width="853"
     inkscape:pageshadow="2"
     inkscape:pageopacity="0.0"
     guidetolerance="10.0"
     gridtolerance="10.0"
     objecttolerance="10.0"
     borderopacity="1.0"
     bordercolor="#666666"
     pagecolor="#ffffff"
     id="base"
     inkscape:zoom="2.0322581"
     inkscape:cx="88.5"
     inkscape:cy="109.87075"
     inkscape:window-x="132"
     inkscape:window-y="132"
     inkscape:current-layer="svg1923" />
  <path
     style="fill:black"
     d="M 67.731936,163.01851 C 51.561453,160.97154 37.569496,153.97892 26.958266,142.64147 C 20.33232,135.56205 15.062372,121.26653 15.017364,110.25 L 15,106 L 71.571956,106 L 128.14391,106 L 127.44316,100.25 C 125.68976,85.862594 120.31491,74.483581 110.66641,64.73218 C 100.20199,54.156152 87.405161,49.023738 71.5,49.023738 C 56.138011,49.023738 47.257669,52.513978 37.497026,62.387925 C 34.173959,65.749566 29.989684,71.287396 28.198636,74.694213 L 24.942185,80.888426 L 19.971093,78.391589 C 17.236992,77.018328 15,75.266662 15,74.498997 C 15,70.805168 20.399181,56.696796 23.831572,51.421589 C 28.096872,44.866293 37.33465,35.289614 43.5,31.031595 C 61.942975,18.294193 87.326287,14.910675 110,22.167347 C 122.26325,26.092174 129.86464,30.801627 139.53893,40.468241 C 149.64545,50.566746 154.59628,59.062739 157.62189,71.5 C 159.84567,80.641236 159.8764,98.932824 157.68466,108.86563 C 151.91295,135.02255 131.25068,154.89832 103,161.46876 C 94.895342,163.35371 76.697047,164.15338 67.731936,163.01851 z M 106.62989,142.86552 C 116.14416,139.30577 124.86456,130.94446 126.56633,123.75 L 127.21682,121 L 93.108408,121 L 59,121 L 59,123.5109 C 59,127.42125 62.944455,134.86025 66.384387,137.43739 C 70.937905,140.84881 77.597387,144.01135 82.343746,145.01636 C 88.338916,146.2858 100.32569,145.22422 106.62989,142.86552 z "
     id="path1932" />
</svg>
